<mxfile host="app.diagrams.net" agent="Mozilla/5.0 (Windows NT 10.0; Win64; x64; rv:134.0) Gecko/20100101 Firefox/134.0" version="26.0.10">
  <diagram name="Page-1" id="dL-Z2z13uD8_r4Ht-EaJ">
    <mxGraphModel dx="1419" dy="1237" grid="1" gridSize="10" guides="1" tooltips="1" connect="1" arrows="1" fold="1" page="1" pageScale="1" pageWidth="850" pageHeight="1100" math="0" shadow="0">
      <root>
        <mxCell id="0" />
        <mxCell id="1" parent="0" />
        <mxCell id="weFOgzEomuFqTalq-CIN-23" value="" style="rounded=1;whiteSpace=wrap;html=1;arcSize=0;fillColor=#dae8fc;strokeColor=#6c8ebf;strokeWidth=3;" parent="1" vertex="1">
          <mxGeometry x="1300" y="300" width="1000" height="500" as="geometry" />
        </mxCell>
        <mxCell id="weFOgzEomuFqTalq-CIN-17" value="" style="rounded=1;whiteSpace=wrap;html=1;arcSize=0;fillColor=#ffe6cc;strokeColor=#d79b00;opacity=50;strokeWidth=3;" parent="1" vertex="1">
          <mxGeometry x="1370" y="40" width="1000" height="490" as="geometry" />
        </mxCell>
        <mxCell id="weFOgzEomuFqTalq-CIN-26" value="&lt;div style=&quot;line-height: 200%;&quot; align=&quot;right&quot;&gt;&lt;span style=&quot;color: rgb(255, 153, 51);&quot;&gt;&lt;b&gt;&lt;font style=&quot;font-size: 20px;&quot;&gt;MOST IMPORTANT&lt;/font&gt;&lt;/b&gt;&lt;/span&gt;&lt;br&gt;&lt;/div&gt;" style="text;whiteSpace=wrap;html=1;" parent="1" vertex="1">
          <mxGeometry x="1400" width="240" height="60" as="geometry" />
        </mxCell>
        <mxCell id="weFOgzEomuFqTalq-CIN-27" value="&lt;div style=&quot;line-height: 200%;&quot; align=&quot;right&quot;&gt;&lt;b&gt;&lt;font style=&quot;font-size: 20px; color: rgb(51, 153, 255);&quot;&gt;LEAST IMPORTANT&lt;/font&gt;&lt;span style=&quot;color: rgba(0, 0, 0, 0);&quot;&gt;&lt;br&gt;&lt;/span&gt;&lt;/b&gt;&lt;/div&gt;" style="text;whiteSpace=wrap;html=1;" parent="1" vertex="1">
          <mxGeometry x="2040" y="820" width="240" height="60" as="geometry" />
        </mxCell>
        <mxCell id="05N1-0PmvOGkJmyKjImN-3" value="&lt;div align=&quot;left&quot;&gt;&lt;ul&gt;&lt;li&gt;&lt;font style=&quot;font-size: 20px;&quot;&gt;Persistence&lt;/font&gt;&lt;/li&gt;&lt;li&gt;&lt;font style=&quot;font-size: 20px;&quot;&gt;Privacy and minimal disclosure&lt;/font&gt;&lt;/li&gt;&lt;li&gt;&lt;font style=&quot;font-size: 20px;&quot;&gt;Security and protection&lt;/font&gt;&lt;/li&gt;&lt;/ul&gt;&lt;/div&gt;" style="rounded=1;whiteSpace=wrap;html=1;align=left;fillColor=#d5e8d4;strokeColor=#82b366;" vertex="1" parent="1">
          <mxGeometry x="1410" y="90" width="370" height="190" as="geometry" />
        </mxCell>
        <mxCell id="05N1-0PmvOGkJmyKjImN-4" value="&lt;span style=&quot;color: rgb(0, 0, 0);&quot;&gt;&lt;b&gt;&lt;font style=&quot;font-size: 25px;&quot;&gt;Security&lt;font&gt;&lt;br&gt;&lt;/font&gt;&lt;/font&gt;&lt;/b&gt;&lt;/span&gt;" style="rounded=0;whiteSpace=wrap;html=1;fillColor=#66CC00;strokeColor=#2D7600;fontColor=#ffffff;" vertex="1" parent="1">
          <mxGeometry x="1410" y="70" width="370" height="60" as="geometry" />
        </mxCell>
        <mxCell id="05N1-0PmvOGkJmyKjImN-7" value="&lt;div align=&quot;left&quot;&gt;&lt;ul&gt;&lt;li&gt;&lt;font style=&quot;font-size: 20px;&quot;&gt;Decentralization and Autonomy&lt;/font&gt;&lt;/li&gt;&lt;li&gt;&lt;font style=&quot;font-size: 20px;&quot;&gt;Usability and consistency&lt;/font&gt;&lt;/li&gt;&lt;li&gt;&lt;font style=&quot;font-size: 20px;&quot;&gt;Verifiability and Authenticity&lt;/font&gt;&lt;/li&gt;&lt;/ul&gt;&lt;/div&gt;" style="rounded=1;whiteSpace=wrap;html=1;align=left;fillColor=#fff2cc;strokeColor=#d6b656;" vertex="1" parent="1">
          <mxGeometry x="1410" y="330" width="370" height="190" as="geometry" />
        </mxCell>
        <mxCell id="05N1-0PmvOGkJmyKjImN-8" value="&lt;div&gt;&lt;b&gt;&lt;font style=&quot;font-size: 25px;&quot;&gt;Usability and agency&lt;/font&gt;&lt;/b&gt;&lt;/div&gt;" style="rounded=0;whiteSpace=wrap;html=1;fillColor=#e3c800;fontColor=#000000;strokeColor=#B09500;" vertex="1" parent="1">
          <mxGeometry x="1410" y="310" width="370" height="60" as="geometry" />
        </mxCell>
        <mxCell id="05N1-0PmvOGkJmyKjImN-9" value="&lt;div&gt;&lt;ul&gt;&lt;li&gt;&lt;font style=&quot;font-size: 20px;&quot;&gt;Access and availability&lt;/font&gt;&lt;/li&gt;&lt;/ul&gt;&lt;/div&gt;" style="rounded=1;whiteSpace=wrap;html=1;fillColor=#dae8fc;strokeColor=#6c8ebf;" vertex="1" parent="1">
          <mxGeometry x="1900" y="320" width="370" height="190" as="geometry" />
        </mxCell>
        <mxCell id="05N1-0PmvOGkJmyKjImN-10" value="&lt;b&gt;&lt;font style=&quot;font-size: 25px; color: rgb(0, 0, 0);&quot;&gt;Mobility&lt;font&gt;&lt;br&gt;&lt;/font&gt;&lt;/font&gt;&lt;/b&gt;" style="rounded=0;whiteSpace=wrap;html=1;fillColor=#1ba1e2;fontColor=#ffffff;strokeColor=#006EAF;" vertex="1" parent="1">
          <mxGeometry x="1900" y="310" width="370" height="60" as="geometry" />
        </mxCell>
        <mxCell id="05N1-0PmvOGkJmyKjImN-11" value="&lt;div align=&quot;left&quot;&gt;&lt;br&gt;&lt;ul&gt;&lt;li&gt;&lt;font style=&quot;font-size: 20px;&quot;&gt;Cost&lt;/font&gt;&lt;/li&gt;&lt;li&gt;&lt;font style=&quot;font-size: 20px;&quot;&gt;Interoperability&lt;/font&gt;&lt;/li&gt;&lt;li&gt;&lt;font style=&quot;font-size: 20px;&quot;&gt;Portability&lt;/font&gt;&lt;/li&gt;&lt;li&gt;&lt;font style=&quot;font-size: 20px;&quot;&gt;Standard&lt;/font&gt;&lt;/li&gt;&lt;li&gt;&lt;font style=&quot;font-size: 20px;&quot;&gt;Transparency&lt;/font&gt;&lt;/li&gt;&lt;/ul&gt;&lt;/div&gt;" style="rounded=1;whiteSpace=wrap;html=1;align=left;fillColor=#e1d5e7;strokeColor=#9673a6;" vertex="1" parent="1">
          <mxGeometry x="1420" y="580" width="370" height="190" as="geometry" />
        </mxCell>
        <mxCell id="05N1-0PmvOGkJmyKjImN-12" value="&lt;b&gt;&lt;font style=&quot;font-size: 25px;&quot;&gt;Sustainability and adoption&lt;br&gt;&lt;/font&gt;&lt;/b&gt;" style="rounded=0;whiteSpace=wrap;html=1;fillColor=#6a00ff;fontColor=#ffffff;strokeColor=#3700CC;" vertex="1" parent="1">
          <mxGeometry x="1420" y="550" width="370" height="60" as="geometry" />
        </mxCell>
        <mxCell id="05N1-0PmvOGkJmyKjImN-15" value="&lt;div align=&quot;left&quot;&gt;&lt;ul&gt;&lt;li&gt;&lt;font style=&quot;font-size: 20px;&quot;&gt;Consent&lt;/font&gt;&lt;/li&gt;&lt;li&gt;&lt;font style=&quot;font-size: 20px;&quot;&gt;Existence and representation&lt;/font&gt;&lt;/li&gt;&lt;li&gt;&lt;font style=&quot;font-size: 20px;&quot;&gt;Ownership and control&lt;/font&gt;&lt;/li&gt;&lt;/ul&gt;&lt;/div&gt;" style="rounded=1;whiteSpace=wrap;html=1;align=left;fillColor=#ffe6cc;strokeColor=#d79b00;" vertex="1" parent="1">
          <mxGeometry x="1900" y="570" width="370" height="190" as="geometry" />
        </mxCell>
        <mxCell id="05N1-0PmvOGkJmyKjImN-16" value="&lt;b&gt;&lt;font style=&quot;font-size: 25px;&quot;&gt;Controllability&lt;/font&gt;&lt;/b&gt;" style="rounded=0;whiteSpace=wrap;html=1;fillColor=#f0a30a;fontColor=#000000;strokeColor=#BD7000;" vertex="1" parent="1">
          <mxGeometry x="1900" y="550" width="370" height="60" as="geometry" />
        </mxCell>
      </root>
    </mxGraphModel>
  </diagram>
</mxfile>
